<svg xmlns="http://www.w3.org/2000/svg" xmlns:xlink="http://www.w3.org/1999/xlink" width="33" height="33" viewBox="0 0 33 33"><defs><path id="ausha" d="M325.605 278.178c0 8.833-7.16 15.993-15.993 15.993s-15.994-7.16-15.994-15.993 7.16-15.994 15.994-15.994c8.833 0 15.993 7.16 15.993 15.994zm-6.925-5.465c-.96-.956-2.862-.605-4.254.788l-6.82 6.819-3.2-3.2a2.157 2.157 0 0 0-3.05 3.05l4.385 4.384c.181.182.395.305.615.409.012.013.02.03.032.043.958.958 2.862.606 4.254-.789l7.25-7.25c1.391-1.39 1.745-3.296.788-4.254z"/></defs><g><g transform="translate(-293 -262)"><use fill="#fff" xlink:href="#ausha"/></g></g></svg>